<svg width="512" height="512" viewBox="0 0 512 512" xmlns="http://www.w3.org/2000/svg">
  <defs>
    <linearGradient id="bgGrad" x1="0%" y1="0%" x2="100%" y2="100%">
      <stop offset="0%" style="stop-color:#0f172a"/>
      <stop offset="100%" style="stop-color:#1e3a5f"/>
    </linearGradient>
    <linearGradient id="accentGrad" x1="0%" y1="0%" x2="100%" y2="100%">
      <stop offset="0%" style="stop-color:#38bdf8"/>
      <stop offset="100%" style="stop-color:#0ea5e9"/>
    </linearGradient>
  </defs>

  <rect width="512" height="512" rx="96" fill="url(#bgGrad)"/>

  <g transform="translate(256, 240)">
    <path d="M-140 20 L-120 -50 Q-110 -80 -80 -80 L80 -80 Q110 -80 120 -50 L140 20"
          fill="none" stroke="url(#accentGrad)" stroke-width="24" stroke-linecap="round" stroke-linejoin="round"/>

    <rect x="-150" y="20" width="300" height="70" rx="16" fill="white" opacity="0.95"/>

    <circle cx="-95" cy="90" r="32" fill="url(#accentGrad)"/>
    <circle cx="-95" cy="90" r="16" fill="url(#bgGrad)"/>

    <circle cx="95" cy="90" r="32" fill="url(#accentGrad)"/>
    <circle cx="95" cy="90" r="16" fill="url(#bgGrad)"/>

    <rect x="-60" y="35" width="50" height="20" rx="4" fill="url(#accentGrad)" opacity="0.8"/>
    <rect x="10" y="35" width="50" height="20" rx="4" fill="url(#accentGrad)" opacity="0.8"/>
  </g>

  <g transform="translate(380, 130)">
    <circle cx="0" cy="0" r="52" fill="url(#accentGrad)"/>
    <path d="M0 -28 L8 -8 L30 -8 L12 6 L20 28 L0 14 L-20 28 L-12 6 L-30 -8 L-8 -8 Z"
          fill="white"/>
  </g>
</svg>